<?xml version="1.0" standalone="no"?>
<!DOCTYPE svg PUBLIC "-//W3C//DTD SVG 20010904//EN"
 "http://www.w3.org/TR/2001/REC-SVG-20010904/DTD/svg10.dtd">
<svg version="1.0" xmlns="http://www.w3.org/2000/svg"
 width="720.000000pt" height="720.000000pt" viewBox="0 0 720.000000 720.000000"
 preserveAspectRatio="xMidYMid meet">
<metadata>
Created by potrace 1.14, written by Peter Selinger 2001-2017
</metadata>
<g transform="translate(0.000000,720.000000) scale(0.100000,-0.100000)"
fill="#000000" stroke="none">
<path d="M2458 6831 c-20 -4 -45 -14 -54 -22 -12 -9 -15 -10 -10 -1 12 21 -21
14 -49 -10 -20 -18 -26 -32 -27 -66 0 -24 5 -49 11 -55 6 -6 11 -19 11 -29 0
-13 8 -18 25 -18 28 0 33 -15 9 -24 -14 -5 -15 -17 -9 -76 8 -76 10 -72 -60
-82 -11 -2 -24 -15 -30 -33 -5 -17 -12 -32 -16 -35 -3 -3 -9 -14 -12 -24 -7
-17 -15 -18 -90 -13 -45 4 -94 7 -109 7 l-26 0 4 78 c2 42 6 93 9 112 l6 35
-70 -3 -70 -4 2 -108 c2 -76 -1 -114 -10 -126 -7 -10 -13 -33 -13 -51 0 -18
-3 -33 -7 -33 -5 0 -7 -53 -7 -117 1 -81 0 -100 -5 -60 -3 31 -9 57 -13 57 -5
0 -26 0 -48 0 l-40 0 1 -97 c2 -91 0 -101 -25 -137 -14 -21 -26 -46 -26 -55 0
-10 -5 -22 -11 -28 -8 -8 -4 -15 12 -27 13 -9 29 -16 36 -16 10 0 13 -35 13
-152 0 -84 3 -183 7 -220 l6 -68 48 0 49 0 0 105 c0 63 4 105 10 105 6 0 10
-43 10 -107 0 -60 3 -131 6 -159 6 -48 5 -52 -18 -57 -23 -6 -24 -11 -23 -62
1 -30 8 -61 15 -70 18 -21 56 -19 73 5 13 18 22 10 165 -139 84 -88 152 -166
152 -174 0 -21 11 -27 31 -16 18 9 19 4 19 -121 0 -89 -3 -130 -11 -130 -8 0
-8 -4 0 -14 8 -9 11 -50 10 -113 l-1 -98 -60 3 c-57 4 -59 3 -49 -16 12 -22
58 -25 82 -5 27 22 45 -6 41 -61 -2 -14 -7 -17 -27 -12 -20 5 -25 3 -25 -12 0
-11 9 -31 21 -46 20 -25 23 -26 136 -26 106 0 115 -1 120 -20 3 -11 8 -20 12
-20 3 0 28 25 55 56 l48 55 -16 168 c-19 197 -19 194 -6 186 14 -8 23 39 17
86 -3 21 -1 37 3 34 4 -3 11 2 14 10 3 10 -1 18 -12 22 -43 14 -102 46 -102
54 0 6 -5 7 -10 4 -6 -4 -7 -11 -4 -17 4 -7 2 -8 -5 -4 -6 4 -9 18 -7 32 3 13
-2 39 -9 57 -14 31 -14 29 -15 -49 0 -59 -4 -83 -13 -87 -8 -3 -13 -17 -11
-34 13 -122 28 -200 40 -214 23 -26 24 -56 3 -75 -10 -9 -19 -23 -19 -29 0 -7
-6 -18 -14 -24 -22 -18 -30 89 -24 316 3 109 2 193 -3 193 -5 0 -9 10 -10 23
0 12 -3 16 -6 10 -11 -30 -24 -9 -21 35 3 40 6 47 26 50 19 3 22 9 20 37 -2
32 -3 34 -20 18 -10 -9 -18 -22 -18 -30 0 -7 -11 -18 -25 -23 -23 -9 -32 -3
-103 73 -42 45 -105 111 -139 148 -35 36 -63 68 -63 71 0 9 65 -5 80 -17 8 -7
69 -41 135 -76 66 -34 123 -67 127 -73 8 -12 23 0 23 17 0 5 6 12 13 15 13 4
16 -18 13 -100 0 -27 3 -48 8 -48 11 0 20 34 22 80 1 19 3 27 6 17 4 -16 6
-15 22 4 14 18 21 20 39 10 27 -15 43 -14 17 1 -18 11 -17 13 20 30 l40 17
-51 1 -51 0 -7 73 c-12 128 -35 376 -60 637 -38 386 -40 420 -28 420 6 0 12
-5 14 -12 3 -7 7 -5 11 6 4 10 3 15 -3 11 -6 -3 -10 -2 -10 4 0 5 6 14 13 18
10 6 11 28 5 93 -11 125 -10 121 -28 114 -8 -3 -20 -8 -26 -10 -25 -11 -24
159 0 184 12 12 191 1 204 -12 9 -9 24 -107 43 -297 17 -156 41 -390 55 -519
13 -129 35 -343 49 -475 14 -132 29 -241 34 -243 6 -2 8 -9 5 -17 -3 -7 -1
-16 5 -19 6 -4 8 -20 4 -37 -5 -25 -3 -28 11 -23 14 5 16 15 10 50 -4 28 -3
44 4 44 17 0 20 -12 13 -65 -5 -32 -2 -64 7 -90 15 -46 10 -100 -16 -153 -12
-26 -17 -59 -16 -107 1 -77 33 -406 41 -418 2 -4 14 -1 25 7 19 14 25 12 72
-28 40 -34 87 -68 124 -91 1 -1 -7 -37 -18 -80 -23 -89 -25 -165 -8 -250 8
-40 8 -63 1 -74 -6 -9 -14 -31 -18 -49 -8 -37 -6 -37 -204 -25 -99 5 -114 9
-119 25 -3 15 -14 18 -57 18 -29 0 -74 3 -101 6 -32 4 -44 2 -36 -4 25 -17
-34 -23 -121 -13 -45 6 -167 16 -272 22 -127 8 -193 16 -200 24 -5 7 -41 15
-79 19 -70 6 -100 21 -111 56 -3 10 -15 20 -25 23 -14 4 -20 14 -20 35 0 34
-55 91 -72 74 -5 -5 -10 -48 -11 -96 -2 -95 -2 -96 64 -96 26 0 42 -5 45 -15
6 -14 8 -13 19 1 28 39 35 5 32 -164 l-2 -167 -27 2 c-23 1 -28 -2 -28 -21 0
-13 9 -30 21 -37 17 -12 19 -18 10 -42 -6 -15 -17 -27 -25 -27 -11 0 -13 -18
-9 -97 6 -112 13 -136 13 -45 0 55 2 62 20 62 11 0 20 -6 20 -13 0 -9 17 -13
53 -13 28 0 78 -6 110 -13 54 -12 57 -14 43 -29 -28 -32 -35 -66 -20 -101 8
-18 14 -34 14 -36 0 -1 -35 6 -77 17 -93 23 -423 75 -398 63 6 -2 52 -14 104
-25 52 -11 99 -24 105 -28 6 -3 21 -5 34 -3 21 2 22 -1 22 -66 0 -69 -18 -120
-34 -95 -4 7 -25 12 -47 12 l-39 0 0 -69 c0 -78 -6 -101 -26 -101 -16 0 -18
67 -5 138 l8 42 -48 14 c-26 8 -68 18 -92 21 l-45 7 -7 -81 c-7 -83 -16 -101
-39 -82 -11 9 -14 -5 -19 -70 -3 -45 -10 -86 -15 -91 -19 -19 -32 3 -33 55 0
38 -3 47 -9 32 -7 -15 -8 -11 -8 20 0 22 2 32 5 23 2 -10 9 -18 14 -18 12 0
12 117 -1 125 -6 4 -4 17 5 36 16 30 12 55 -6 43 -6 -3 -16 2 -24 12 -12 16
-18 17 -44 7 -27 -10 -32 -9 -41 7 -13 24 -13 71 0 106 9 22 15 26 39 21 45
-9 55 12 56 111 0 83 1 86 25 92 24 6 25 10 30 94 3 48 2 90 -2 92 -3 2 -13 1
-22 -2 -12 -4 -13 -10 -4 -23 14 -22 -3 -76 -23 -76 -10 0 -14 16 -15 63 -1
54 -5 66 -28 87 -22 20 -27 33 -24 63 3 35 5 37 38 37 l35 0 3 85 c2 46 7 87
12 90 9 6 123 -2 208 -15 l43 -6 -3 52 -3 53 -110 1 -110 0 -53 38 c-50 38
-55 39 -152 44 -68 4 -113 2 -139 -7 -32 -10 -42 -10 -69 4 -32 17 -53 6 -34
-17 12 -15 4 -34 -27 -69 l-23 -26 -133 5 -134 6 -6 -39 c-3 -21 -13 -75 -21
-119 -47 -259 -75 -470 -65 -492 10 -22 16 -23 113 -23 57 0 113 -3 125 -6 18
-5 23 -1 28 28 46 268 76 436 81 451 8 25 36 17 51 -14 7 -15 20 -62 29 -105
9 -44 22 -108 30 -144 26 -120 35 -184 30 -206 -5 -19 -14 -21 -108 -27 -62
-3 -115 -12 -134 -21 -21 -11 -82 -19 -189 -25 -210 -13 -233 -24 -291 -138
-143 -282 -161 -919 -38 -1383 31 -117 95 -250 140 -289 54 -48 95 -54 319
-47 110 3 229 10 265 16 90 14 179 52 213 92 58 68 106 219 133 415 19 139 30
163 76 163 21 0 33 8 48 32 18 31 24 33 87 38 65 5 68 6 71 32 4 31 19 35 48
13 10 -8 38 -15 61 -15 l42 0 -6 -207 c-4 -128 -1 -265 6 -358 11 -137 48
-389 70 -475 35 -136 53 -197 66 -223 8 -16 15 -35 15 -40 0 -6 21 -54 47
-106 36 -74 61 -111 111 -159 108 -107 135 -113 432 -92 80 5 224 14 320 19
237 12 293 29 373 114 31 33 68 83 81 111 54 116 67 150 77 199 6 29 14 59 18
67 5 8 13 53 20 100 7 47 18 112 24 145 l12 60 89 5 c81 5 90 7 112 33 28 33
32 91 8 126 -10 13 -13 26 -7 32 12 12 440 21 448 10 8 -13 197 -1 215 14 15
13 490 45 658 45 74 0 82 -2 82 -19 0 -10 6 -24 14 -30 8 -7 18 -27 22 -44 3
-17 10 -38 14 -47 4 -8 13 -41 19 -74 6 -32 19 -77 30 -100 10 -22 26 -63 35
-91 9 -27 26 -66 38 -85 12 -19 30 -51 39 -70 25 -54 126 -167 184 -205 101
-68 138 -79 265 -79 181 -1 548 21 624 38 105 24 188 67 254 133 70 69 102
114 102 141 0 11 7 22 15 26 21 8 65 111 65 151 0 19 6 35 14 38 17 7 50 139
41 167 -4 14 -1 28 11 41 13 15 18 43 22 126 11 248 2 474 -21 518 -9 16 -14
40 -11 52 8 30 -24 159 -42 174 -8 6 -14 26 -14 44 0 31 2 33 50 39 30 4 59
15 70 26 33 33 25 42 -30 38 l-50 -3 -2 215 -2 215 -5 -207 c-3 -113 -8 -208
-11 -211 -3 -2 -26 -8 -52 -11 l-47 -7 -7 36 c-3 20 -4 53 0 73 3 20 6 133 6
250 1 116 5 212 10 212 29 0 40 -15 40 -52 0 -23 4 -37 10 -33 6 3 10 0 10 -8
0 -8 7 -17 15 -21 11 -4 15 2 15 25 0 26 -3 30 -20 26 -17 -4 -20 0 -20 28 0
31 24 57 32 34 2 -6 23 -13 46 -16 32 -4 47 -1 62 12 21 19 28 75 10 75 -5 0
-10 7 -10 16 0 9 5 12 12 8 8 -5 9 -2 3 12 -4 10 -10 29 -12 41 -4 16 -14 22
-44 25 -21 2 -41 -1 -43 -7 -2 -5 -5 -4 -5 3 -1 7 13 18 29 23 30 11 30 11 30
89 0 44 4 81 9 84 13 8 6 89 -8 94 -6 2 -11 8 -11 13 0 6 5 7 10 4 6 -3 10 4
10 17 0 18 -2 20 -10 8 -7 -11 -10 -7 -10 18 0 17 5 32 10 32 6 0 10 5 10 11
0 5 -6 7 -12 3 -7 -5 4 8 25 28 31 29 37 42 37 76 0 25 -7 49 -19 63 -18 21
-22 23 -41 11 -12 -8 -19 -9 -16 -4 3 5 -44 11 -117 15 -67 2 -133 9 -147 15
-24 10 -24 11 11 11 28 1 38 6 47 26 7 14 12 36 12 48 0 33 -73 176 -90 177
-13 0 -13 1 0 10 11 7 11 10 2 10 -7 0 -10 5 -7 10 4 6 1 18 -6 26 -10 12 -45
14 -198 14 -102 0 -219 -3 -259 -7 -67 -5 -72 -7 -66 -26 4 -11 14 -58 24
-103 l17 -82 -86 -5 c-47 -2 -165 -5 -261 -6 l-176 -2 1 41 1 40 -553 0 -552
0 -15 -27 -15 -28 -15 35 -16 35 6 -52 7 -53 -96 0 c-91 0 -96 1 -100 23 l-4
22 -2 -22 c-1 -22 -3 -22 -190 -25 l-190 -3 -5 30 c-3 17 -11 67 -17 112 l-12
82 -180 3 c-98 2 -183 0 -188 -3 -5 -3 -7 -14 -3 -24 5 -13 4 -16 -4 -11 -7 4
-12 14 -12 22 0 11 -15 14 -67 14 -38 0 -78 3 -91 6 -18 5 -24 2 -29 -15 -3
-11 -10 -21 -15 -21 -5 0 -14 -14 -19 -30 -6 -17 -14 -30 -18 -30 -4 0 -13 28
-19 62 -14 76 -10 81 75 74 37 -3 65 -1 69 5 14 24 -8 56 -61 88 -63 38 -77
60 -145 231 -25 66 -39 113 -35 127 5 22 9 23 134 23 112 0 314 -24 382 -46 9
-2 64 -7 122 -9 83 -3 108 -1 117 10 7 8 16 13 20 10 4 -2 7 12 6 33 l-1 37
110 -4 c125 -4 155 -15 226 -81 35 -32 51 -40 81 -40 21 0 38 3 38 8 0 4 35 6
77 6 43 -1 81 3 84 8 4 7 14 6 27 -1 26 -14 145 -14 158 -1 8 8 20 7 40 0 15
-6 62 -11 104 -10 41 0 115 -1 163 -4 76 -3 85 -2 70 10 -22 17 -9 18 20 2 12
-7 37 -13 54 -13 29 -1 32 1 27 22 -4 13 -2 23 5 23 6 0 8 12 4 31 l-6 30 54
0 c30 -1 75 2 100 5 58 7 116 -18 194 -87 31 -27 62 -49 69 -49 7 0 21 9 31
20 10 12 25 18 33 15 8 -3 20 -1 27 5 19 16 239 60 299 60 47 0 57 -3 75 -27
l22 -28 -3 67 c-3 81 13 105 76 110 41 3 41 3 44 46 3 44 12 52 32 27 7 -8 19
-15 27 -15 11 0 13 30 11 178 l-3 177 40 3 c22 2 44 10 48 18 4 8 23 21 42 28
18 8 39 24 45 36 15 28 6 77 -19 105 -14 15 -21 50 -29 150 -7 72 -12 150 -12
174 0 30 -5 48 -17 56 -14 11 -15 16 -4 28 8 10 12 43 12 89 -2 287 -3 282 19
313 27 41 26 80 -6 112 -21 21 -31 24 -57 18 -40 -8 -40 -9 -104 -7 -52 2 -53
3 -53 31 0 66 -13 79 -85 86 -36 4 -69 5 -72 1 -6 -5 9 -146 24 -233 5 -32 7
-33 54 -33 27 0 49 -4 49 -10 0 -5 -7 -10 -15 -10 -18 0 -19 -39 -5 -291 6
-97 10 -228 11 -290 1 -63 3 -121 5 -130 3 -11 20 -19 53 -23 61 -8 79 -26 57
-58 -9 -12 -16 -30 -16 -39 0 -9 -15 -36 -34 -61 -34 -45 -35 -46 -26 -108 10
-68 5 -90 -17 -90 -24 0 -73 -62 -73 -92 0 -16 -4 -28 -10 -28 -5 0 -10 -10
-10 -22 0 -17 3 -19 9 -9 6 9 8 -3 7 -32 -3 -83 -25 -77 -38 11 -4 31 -15 104
-24 162 -9 58 -16 116 -16 130 0 14 -3 30 -8 35 -4 6 -8 34 -9 63 0 29 -4 58
-7 64 -4 6 -9 45 -12 87 -2 42 -8 83 -12 92 -5 9 -7 25 -4 36 3 12 1 24 -5 27
-7 5 -9 22 -5 46 4 25 1 49 -9 69 -9 18 -11 33 -6 37 5 3 5 13 -1 24 -5 10
-10 43 -10 73 0 29 -3 57 -6 60 -4 3 -8 37 -11 74 -2 37 -6 79 -10 93 -3 14
-5 29 -4 34 1 5 -5 69 -14 143 -9 73 -14 137 -11 142 3 5 -1 28 -9 51 -8 23
-15 70 -15 104 0 50 -5 68 -25 96 -29 39 -20 60 25 60 15 0 35 9 44 19 25 28
24 91 -2 112 -37 29 -297 49 -432 32 l-55 -7 40 -7 c22 -5 60 -8 84 -8 32 -1
58 -10 93 -32 85 -55 99 -99 49 -150 -20 -20 -40 -29 -61 -29 -35 0 -37 -4
-42 -87 l-4 -63 44 0 45 0 -8 -32 c-12 -49 -10 -95 5 -123 12 -22 11 -90 -2
-441 -8 -228 -17 -417 -20 -419 -2 -2 -26 7 -53 20 -67 32 -194 48 -315 40
-90 -7 -97 -6 -102 11 -11 48 -1 506 14 619 9 66 16 122 16 125 -1 19 4 23 12
10 7 -11 10 -3 10 30 0 26 -7 56 -16 69 -9 13 -17 45 -18 74 -1 48 1 51 29 59
17 5 62 6 102 3 68 -6 72 -6 88 19 9 14 15 39 13 58 l-3 33 -65 5 c-58 4 -63
6 -43 18 12 7 28 32 37 60 14 41 15 43 11 12 -2 -19 -5 -44 -7 -55 -2 -13 3
-20 12 -20 11 0 17 15 20 50 3 28 9 55 13 62 11 17 -11 27 -29 12 -11 -9 -18
-9 -26 -1 -23 23 -75 14 -98 -15 -20 -26 -23 -53 -9 -103 3 -12 -7 -14 -58
-12 l-62 4 -6 -47 c-4 -25 -17 -58 -30 -73 -30 -38 -33 -50 -25 -111 8 -66 -5
-138 -25 -138 -8 0 -15 4 -15 9 0 4 -8 8 -17 8 -15 0 -19 11 -21 64 -2 38 1
67 7 71 6 3 11 1 11 -4 0 -6 7 -11 15 -11 16 0 21 33 17 120 -1 37 0 41 8 23
20 -49 60 -15 60 50 l0 35 -167 6 c-93 4 -181 9 -198 11 -16 2 -142 6 -280 9
-238 4 -240 0 -11 -18 75 -6 119 -27 110 -51 -4 -8 -1 -22 6 -30 9 -11 10 -34
4 -82 -12 -107 -12 -114 -13 -196 l-1 -77 -35 -17 c-39 -19 -48 -39 -43 -101
4 -61 22 -52 29 15 3 32 7 49 8 38 5 -36 0 -139 -9 -204 -8 -55 -7 -66 7 -76
29 -21 4 -35 -62 -35 -87 0 -91 -8 -75 -154 7 -61 11 -127 9 -146 -4 -34 -5
-35 -53 -40 l-50 -5 -2 -48 c-2 -55 -8 -65 -29 -47 -21 17 -19 2 5 -62 11 -29
23 -86 27 -127 l6 -74 -194 7 c-107 3 -225 6 -264 7 -52 1 -59 3 -27 6 43 4
43 5 26 24 -9 10 -23 19 -30 19 -22 0 -28 23 -9 37 11 7 30 14 44 14 21 1 22
2 6 6 -31 8 -43 22 -38 42 6 22 -25 36 -56 26 -11 -3 -25 1 -34 9 -20 21 -124
10 -137 -14 -5 -10 -7 -20 -3 -23 10 -11 -18 -95 -34 -101 -18 -7 -33 1 -33
17 0 31 -22 87 -35 87 -9 0 -21 31 -35 92 -30 128 -30 128 -94 128 -97 0 -113
7 -125 54 -6 22 -16 93 -22 156 -6 63 -16 123 -20 132 -7 13 -25 18 -76 20
-42 2 -68 8 -71 16 -2 8 8 12 32 12 25 0 38 6 46 20 6 11 13 85 17 165 7 160
10 153 -61 158 -34 3 -41 8 -47 32 -12 44 -12 126 1 177 13 55 -1 128 -26 128
-12 0 -12 4 2 25 21 32 16 151 -7 166 -8 5 -9 9 -2 9 8 0 9 9 2 35 -18 65 20
125 78 125 36 0 44 13 16 25 -26 10 -441 16 -485 6z m-76 -81 c-4 -28 -6 -31
-12 -15 -4 11 -2 28 4 37 14 22 15 20 8 -22z m55 11 c0 -11 -5 -18 -9 -15 -4
3 -5 11 -1 19 7 21 12 19 10 -4z m371 -118 c-10 -2 -26 -2 -35 0 -10 3 -2 5
17 5 19 0 27 -2 18 -5z m-399 -117 c-2 -77 -25 -82 -31 -8 -5 56 -1 72 19 72
11 0 14 -14 12 -64z m2498 -68 c-3 -7 -5 -2 -5 12 0 14 2 19 5 13 2 -7 2 -19
0 -25z m-2891 -213 c-2 -7 -14 -19 -26 -25 -19 -10 -20 -9 -14 17 9 35 37 59
42 37 2 -8 1 -21 -2 -29z m-87 -162 c-1 -74 -4 -97 -9 -73 l-7 35 -4 -35 c-1
-19 -5 10 -8 65 -7 111 -6 115 15 115 11 0 14 -20 13 -107z m388 77 l81 0 6
-82 c3 -46 10 -211 16 -368 6 -157 13 -295 16 -307 3 -18 0 -23 -16 -23 -19 0
-20 -4 -14 -54 6 -47 4 -55 -15 -68 -11 -8 -18 -19 -14 -24 4 -5 2 -4 -5 2
-18 16 -27 87 -14 111 15 27 -2 43 -45 43 -20 0 -36 -7 -42 -17 -10 -17 -10
-17 -11 0 0 20 -46 24 -53 5 -3 -10 -7 -10 -19 -1 -11 9 -17 44 -22 125 -8
108 -16 413 -16 566 l0 72 -55 0 c-44 0 -55 3 -55 17 0 14 11 15 98 10 53 -4
134 -7 179 -7z m3901 -32 c13 -13 17 -68 4 -68 -17 0 -32 25 -32 52 0 30 9 35
28 16z m-97 -108 c15 -9 17 -15 9 -30 -11 -20 -11 -20 -40 2 -43 31 -18 54 31
28z m-1197 -52 c4 -24 5 -59 4 -78 -1 -19 2 -53 6 -75 7 -35 5 -42 -16 -54
-13 -7 -20 -10 -16 -6 9 9 -9 45 -22 45 -6 0 -10 -10 -10 -22 0 -18 -2 -20 -9
-9 -5 8 -10 63 -10 122 -2 116 -4 111 56 118 7 0 14 -17 17 -41z m-3045 -95
l-2 -88 -7 80 c-7 74 -6 95 6 95 2 0 3 -39 3 -87z m41 1 c0 -54 -4 -83 -10
-79 -5 3 -10 42 -10 86 0 46 4 79 10 79 6 0 10 -35 10 -86z m2870 -175 c0
-180 -9 -217 -28 -121 -9 43 -6 259 3 290 3 6 9 12 15 12 6 0 10 -63 10 -181z
m886 -131 c14 -111 38 -313 54 -447 23 -192 27 -247 17 -253 -15 -10 -22 7
-39 107 -12 71 -17 80 -38 85 -19 4 -26 13 -28 38 -2 18 -10 36 -18 39 -13 5
-14 40 -9 257 7 310 13 402 27 388 6 -6 21 -102 34 -214z m-3787 35 c1 -18 -3
-33 -9 -33 -6 0 -9 33 -9 83 2 77 2 79 9 32 5 -27 9 -65 9 -82z m40 5 c1 -21
-3 -38 -9 -38 -5 0 -11 19 -11 43 -1 23 -3 53 -5 67 -1 14 0 32 3 40 7 17 21
-55 22 -112z m2944 87 c4 -8 2 -17 -3 -20 -6 -4 -10 3 -10 14 0 25 6 27 13 6z
m67 -88 c0 -10 -4 -15 -10 -12 -5 3 -10 18 -10 33 0 21 2 24 10 12 5 -8 10
-23 10 -33z m-3010 -167 l6 105 2 -106 c2 -87 -1 -108 -13 -113 -13 -5 -15 11
-13 107 l2 112 5 -105 5 -105 6 105z m2679 53 c11 -22 31 -148 31 -197 0 -19
7 -41 15 -50 13 -13 12 -17 -14 -36 -53 -37 -53 -87 0 -141 23 -24 29 -38 27
-62 l-3 -32 -62 0 c-35 0 -67 5 -74 12 -13 13 -44 248 -55 421 l-7 102 66 0
c53 0 68 -4 76 -17z m-2172 -175 c-2 -13 -4 -5 -4 17 -1 22 1 32 4 23 2 -10 2
-28 0 -40z m-347 12 c-12 -8 -12 -14 -1 -45 7 -20 10 -39 7 -42 -6 -6 -10 3
-25 60 -9 34 -8 37 12 37 18 0 19 -2 7 -10z m3330 -10 c0 -5 -4 -10 -9 -10 -6
0 -13 5 -16 10 -3 6 1 10 9 10 9 0 16 -4 16 -10z m40 -10 c0 -5 -4 -10 -9 -10
-6 0 -13 5 -16 10 -3 6 1 10 9 10 9 0 16 -4 16 -10z m-555 -20 c-3 -5 -15 -10
-26 -10 -11 0 -17 5 -14 10 3 6 15 10 26 10 11 0 17 -4 14 -10z m-2465 -57
l-1 -58 -15 29 c-11 20 -13 31 -5 39 6 6 11 19 11 29 0 10 2 18 5 18 3 0 5
-26 5 -57z m2932 36 c72 -15 87 -28 59 -51 -12 -9 -47 -26 -77 -37 -69 -26
-204 -30 -224 -6 -16 19 -47 19 -84 0 -46 -24 -66 -20 -66 15 0 17 4 30 9 30
5 0 22 11 38 24 16 13 42 26 58 29 63 9 236 7 287 -4z m-3349 -13 c12 4 17 0
17 -13 0 -37 -28 -58 -70 -54 -12 1 -12 4 3 12 28 16 21 39 -13 39 -19 0 -30
5 -30 14 0 11 8 12 38 5 20 -4 45 -6 55 -3z m2732 -5 c-3 -6 -14 -11 -23 -11
-15 1 -15 2 2 15 21 16 32 13 21 -4z m1515 -93 c0 -35 -23 -37 -38 -2 -9 19
-9 30 -1 46 11 21 12 21 25 3 8 -10 14 -31 14 -47z m-1311 -35 c0 -25 -1 -25
-8 -8 -5 11 -7 23 -4 28 8 14 13 7 12 -20z m-29 -81 c0 -20 4 -52 9 -70 8 -25
7 -32 -5 -32 -8 0 -14 4 -14 9 0 5 -13 12 -30 16 -35 8 -36 9 -45 57 -6 34 -5
39 16 47 13 5 34 10 47 10 19 1 22 -4 22 -37z m-1900 -82 c0 -5 -4 -10 -10
-10 -5 0 -10 5 -10 10 0 6 5 10 10 10 6 0 10 -4 10 -10z m-615 -208 c-3 -3
-11 0 -18 7 -9 10 -8 11 6 5 10 -3 15 -9 12 -12z m-55 -133 c0 -90 -3 -109
-15 -109 -12 0 -15 19 -15 115 0 98 2 114 15 109 12 -5 15 -27 15 -115z m2037
89 c-17 -47 -18 -58 -3 -58 9 0 19 13 24 32 4 17 13 33 20 36 15 5 15 -18 2
-52 -8 -21 -16 -26 -44 -26 -19 0 -37 3 -39 8 -9 16 14 72 29 72 9 0 14 -6 11
-12z m-1497 -13 c0 -8 -4 -15 -10 -15 -5 0 -10 7 -10 15 0 8 5 15 10 15 6 0
10 -7 10 -15z m1600 -6 c0 -8 5 -7 15 1 20 17 29 7 21 -25 -7 -29 -45 -36 -47
-7 -1 16 -2 16 -6 0 -2 -10 -11 -18 -19 -18 -16 0 -17 5 -8 38 6 22 44 32 44
11z m86 -5 c-3 -9 -6 -22 -6 -30 0 -8 -7 -14 -15 -14 -8 0 -15 6 -15 14 0 26
12 46 27 46 10 0 13 -6 9 -16z m54 4 c0 -9 3 -9 12 0 18 18 51 15 44 -4 -3 -9
-6 -22 -6 -30 0 -17 -30 -19 -31 -1 0 10 -2 10 -6 0 -7 -19 -23 -16 -24 5 -1
16 -2 16 -6 0 -2 -10 -11 -18 -19 -18 -16 0 -17 5 -8 38 7 23 44 32 44 10z
m150 -2 c0 -35 -13 -46 -51 -46 -41 0 -46 8 -29 41 13 23 80 28 80 5z m91 -13
c-6 -23 -14 -29 -44 -31 -33 -3 -37 -1 -37 21 0 32 7 37 51 37 36 0 37 -1 30
-27z m-2261 -39 c15 -38 12 -80 -6 -95 -21 -17 -34 3 -34 53 0 67 22 90 40 42z
m-258 -201 c4 -128 3 -146 -8 -150 -12 -4 -30 190 -19 207 16 25 25 4 27 -57z
m46 -180 c-17 -4 -17 -6 -1 -31 9 -15 18 -29 20 -31 1 -2 9 2 18 9 13 10 15 9
15 -8 0 -40 -61 -61 -91 -31 -35 35 -12 100 35 98 17 -1 17 -2 4 -6z m976
-380 c6 -61 -9 -68 -35 -15 -8 18 -19 29 -24 25 -4 -5 -5 0 -2 10 4 10 7 26 8
35 0 14 2 13 9 -3 7 -16 9 -12 16 25 l8 45 7 -35 c5 -19 10 -59 13 -87z m-156
5 c0 -35 -2 -55 -5 -45 -2 9 -9 14 -15 11 -8 -5 -9 1 -5 17 4 13 7 36 7 52 0
15 4 27 8 27 5 0 9 -28 10 -62z m355 4 c3 -24 1 -40 -4 -36 -5 3 -9 21 -9 40
0 19 -5 34 -11 34 -5 0 -7 5 -3 11 10 17 21 -2 27 -49z m-31 6 c-7 -7 -12 -8
-12 -2 0 6 3 14 7 17 3 4 9 5 12 2 2 -3 -1 -11 -7 -17z m-1332 -189 c63 -5
168 -12 233 -16 109 -5 133 -12 106 -28 -15 -10 -88 -12 -82 -2 2 4 -21 5 -52
3 -42 -3 -58 0 -62 10 -6 16 -49 19 -58 4 -4 -6 -10 -8 -15 -5 -5 3 -39 7 -77
10 -37 3 -99 7 -138 11 -38 3 -88 7 -110 9 -55 4 -57 7 -10 15 41 8 62 7 265
-11z m4160 -40 c0 -11 -4 -17 -10 -14 -5 3 -10 13 -10 21 0 8 5 14 10 14 6 0
10 -9 10 -21z m107 -16 c-3 -10 -5 -4 -5 12 0 17 2 24 5 18 2 -7 2 -21 0 -30z
m-3847 0 c-8 -3 -18 -11 -22 -17 -5 -7 -8 -4 -8 7 0 11 7 17 23 16 15 0 17 -2
7 -6z m163 0 c-7 -2 -21 -2 -30 0 -10 3 -4 5 12 5 17 0 24 -2 18 -5z m-417
-38 c3 -15 0 -33 -7 -41 -8 -10 -8 -14 0 -14 6 0 11 -5 11 -11 0 -6 -5 -9 -12
-7 -20 7 -30 52 -18 83 12 32 19 29 26 -10z m-55 -2 c11 -20 11 -27 2 -30 -7
-3 -13 -11 -13 -19 0 -24 -17 -15 -23 12 -5 29 1 64 12 64 4 0 14 -12 22 -27z
m4445 5 c-14 -8 -15 -13 -5 -24 9 -12 6 -14 -20 -14 -17 0 -31 5 -31 11 0 6 7
9 14 6 10 -4 13 -1 9 9 -3 7 -13 14 -22 15 -13 0 -12 2 3 8 11 4 31 5 44 3 21
-4 22 -6 8 -14z m-3087 -15 c0 -16 -3 -22 -6 -13 -3 8 -10 21 -16 28 -7 8 -5
12 7 12 11 0 16 -8 15 -27z m2981 7 c0 -5 -21 -10 -47 -11 -78 -1 -128 -8
-131 -19 -2 -5 -8 -8 -13 -4 -5 3 -5 13 1 25 9 17 22 19 100 19 53 0 90 -4 90
-10z m37 -22 c-3 -8 -6 -5 -6 6 -1 11 2 17 5 13 3 -3 4 -12 1 -19z m-1677 -13
c0 -9 -6 -12 -15 -9 -8 4 -15 10 -15 15 0 5 7 9 15 9 8 0 15 -7 15 -15z m1845
-5 c11 9 15 9 15 1 0 -21 -31 -24 -48 -5 -16 17 -16 17 1 5 14 -11 20 -11 32
-1z m-4912 -17 c-7 -2 -19 -2 -25 0 -7 3 -2 5 12 5 14 0 19 -2 13 -5z m4527
-23 c0 -16 -2 -30 -4 -30 -2 0 -6 14 -8 30 -3 17 -1 30 4 30 4 0 8 -13 8 -30z
m-4333 4 c-3 -3 -12 -4 -19 -1 -8 3 -5 6 6 6 11 1 17 -2 13 -5z m248 -26 c6
-4 0 -8 -12 -8 -16 0 -21 4 -16 15 3 9 8 12 12 8 3 -4 11 -11 16 -15z m-98 6
c-3 -3 -12 -4 -19 -1 -8 3 -5 6 6 6 11 1 17 -2 13 -5z m4351 -35 c9 -14 20
-19 33 -16 15 4 19 0 21 -21 3 -58 -5 -127 -16 -134 -8 -6 -8 -8 0 -8 15 0 25
-105 14 -136 -6 -16 -20 -27 -39 -30 -18 -4 -28 -11 -25 -19 8 -19 -52 -27
-236 -28 l-165 -2 -2 28 c-2 27 10 36 22 17 3 -5 12 -10 18 -10 17 0 7 132
-10 138 -9 2 -13 -9 -14 -35 -1 -34 -2 -35 -9 -13 -4 14 -8 37 -9 53 -1 22 3
27 24 27 14 0 25 -4 25 -10 0 -18 47 -10 66 11 15 17 19 34 16 87 -2 73 -16
91 -69 92 -18 0 -33 5 -33 10 0 6 27 10 61 10 49 0 60 -3 56 -14 -9 -22 25
-25 43 -5 18 20 47 25 145 28 61 1 72 -2 83 -20z m-945 4 c-7 -2 -21 -2 -30 0
-10 3 -4 5 12 5 17 0 24 -2 18 -5z m550 -36 c-9 -15 -21 4 -15 25 5 21 6 21
12 2 4 -10 5 -22 3 -27z m157 33 c0 -5 -5 -10 -11 -10 -5 0 -7 5 -4 10 3 6 8
10 11 10 2 0 4 -4 4 -10z m-2720 -25 c0 -26 -14 -33 -25 -15 -9 14 1 40 15 40
5 0 10 -11 10 -25z m107 -7 c-3 -7 -5 -2 -5 12 0 14 2 19 5 13 2 -7 2 -19 0
-25z m1608 -8 c29 -56 11 -156 -25 -145 -17 5 -29 -9 -26 -30 1 -10 5 -11 34
-14 17 -1 15 -38 -3 -45 -23 -8 -18 -23 10 -30 14 -4 25 -13 25 -21 0 -9 -11
-20 -25 -25 -31 -12 -32 -23 -3 -42 28 -19 15 -42 -18 -34 -27 7 -32 -11 -12
-44 16 -25 3 -38 -23 -22 -26 17 -41 7 -33 -23 3 -13 3 -28 0 -34 -9 -14 -36
-2 -36 15 0 26 -29 14 -32 -13 -2 -20 -9 -28 -23 -28 -15 0 -19 6 -17 23 2 15
-2 22 -12 22 -9 0 -16 -6 -16 -14 0 -21 -14 -27 -49 -20 -34 7 -43 34 -11 34
11 0 20 7 20 15 0 19 -14 19 -30 0 -8 -10 -21 -13 -39 -9 -40 10 -43 14 -27
39 15 22 14 23 -19 29 -39 8 -47 31 -15 41 16 5 18 10 10 26 -6 10 -20 19 -31
19 -27 0 -19 24 9 28 29 4 31 47 2 55 -30 8 -24 27 8 27 15 0 34 6 41 13 11
10 13 10 7 0 -4 -7 -2 -13 3 -13 20 0 11 30 -15 46 -35 23 -17 37 34 26 23 -5
43 -7 46 -4 9 8 -14 32 -30 32 -8 0 -14 7 -14 15 0 11 11 15 35 15 22 0 38 -6
41 -15 4 -8 14 -15 23 -14 12 0 11 3 -6 16 -38 26 -28 36 27 30 56 -7 57 -5
35 58 -8 22 -15 41 -15 43 0 1 40 2 90 2 89 0 90 0 105 -30z m-2376 -58 c-1
-21 2 -67 6 -103 l7 -66 -27 -7 c-15 -4 -29 -6 -30 -4 -2 2 -5 60 -7 129 l-3
127 28 -20 c22 -16 27 -27 26 -56z m1989 56 c16 -20 23 -72 12 -88 -5 -8 -10
-12 -10 -9 0 3 -34 0 -75 -6 -42 -7 -78 -9 -80 -5 -2 4 -8 24 -13 46 -6 21
-13 47 -17 57 -6 15 1 17 83 17 60 0 93 -4 100 -12z m-1092 -32 c7 -42 -12
-107 -35 -113 -14 -3 -16 -21 -13 -148 3 -115 1 -146 -10 -149 -21 -8 -508
-13 -508 -6 0 3 5 11 12 18 9 9 0 12 -43 12 -33 0 -63 6 -77 16 -12 8 -22 12
-21 7 1 -4 1 -19 0 -33 -1 -23 -2 -24 -13 -6 -7 12 -9 60 -5 137 3 65 2 121
-3 124 -4 3 -8 38 -9 79 l-1 73 38 6 c33 4 419 1 432 -3 3 -1 10 -1 15 0 21 5
152 17 192 19 40 1 42 0 49 -33z m2394 -60 c0 -11 -19 -15 -25 -6 -3 5 1 10 9
10 9 0 16 -2 16 -4z m-630 -85 c0 -5 18 -11 40 -15 22 -3 43 -14 48 -24 14
-26 22 -189 13 -261 -10 -82 -24 -93 -111 -89 l-65 3 -5 175 c-3 96 -4 181 -2
188 2 6 13 12 24 12 10 0 16 5 13 10 -4 6 5 10 19 10 14 0 26 -4 26 -9z
m-1084 -26 c36 -8 48 -51 52 -198 5 -187 3 -191 -96 -205 -42 -6 -81 -7 -85
-3 -5 5 -10 26 -12 47 -3 31 -7 333 -5 366 0 7 99 2 146 -7z m-1562 -77 c3
-13 6 -49 6 -80 0 -44 -4 -58 -14 -58 -18 0 -31 76 -22 121 3 16 2 28 -2 25
-4 -3 -14 -1 -22 5 -11 6 -7 9 16 9 24 0 33 -5 38 -22z m-762 -93 c-19 -41
-30 -28 -19 21 10 41 12 44 21 25 6 -14 5 -29 -2 -46z m3908 15 c-19 -13 -30
-13 -30 0 0 6 10 10 23 10 18 0 19 -2 7 -10z m-2203 -66 c-3 -3 -12 -4 -19 -1
-8 3 -5 6 6 6 11 1 17 -2 13 -5z m2851 -9 c-2 -5 -12 -10 -23 -11 -35 -1 -75
-14 -75 -25 0 -6 -8 -5 -22 2 -18 10 -24 8 -35 -7 -12 -17 -13 -17 -13 2 0 18
-6 19 -95 16 -63 -2 -95 0 -95 7 0 6 8 12 18 12 69 5 301 16 320 15 12 -1 21
-5 20 -11z m-4339 -27 c0 -28 -2 -30 -9 -13 -12 28 -12 45 0 45 6 0 10 -15 9
-32z m1201 -34 c0 -26 -17 -33 -26 -9 -8 20 3 48 16 40 5 -3 10 -17 10 -31z
m2317 -6 c-3 -7 -5 -2 -5 12 0 14 2 19 5 13 2 -7 2 -19 0 -25z m460 -15 c-3
-10 -5 -2 -5 17 0 19 2 27 5 18 2 -10 2 -26 0 -35z m-2179 -37 c3 -12 -1 -17
-10 -14 -7 3 -15 13 -16 22 -3 12 1 17 10 14 7 -3 15 -13 16 -22z m2222 -25
c0 -50 -13 -121 -21 -121 -10 0 -12 143 -3 153 12 12 24 -4 24 -32z m-3375 4
c0 -11 -79 -19 -102 -11 -8 3 -11 11 -8 16 8 14 110 9 110 -5z m3161 6 c-3 -5
-15 -7 -26 -4 -28 7 -25 13 6 13 14 0 23 -4 20 -9z m-4583 -23 c4 -12 2 -67
-3 -123 -6 -55 -11 -122 -12 -150 -2 -37 -7 -50 -18 -50 -13 0 -14 23 -11 165
2 91 5 168 8 173 9 15 31 6 36 -15z m3435 -2 c12 -13 -23 -26 -70 -26 -35 0
-48 4 -48 14 0 8 6 17 13 20 15 7 96 1 105 -8z m-1458 -41 c0 -15 -6 -25 -14
-25 -24 0 -29 20 -10 35 25 19 24 19 24 -10z m-1930 -37 c0 -23 -3 -29 -11
-21 -6 6 -8 20 -4 32 9 30 15 26 15 -11z m3435 18 c22 -16 32 -115 21 -219
l-7 -62 -50 3 c-27 2 -49 8 -49 13 0 5 -15 9 -34 9 l-35 0 -3 103 c-4 114 5
148 42 158 43 12 95 10 115 -5z m-1177 -3 c-10 -2 -26 -2 -35 0 -10 3 -2 5 17
5 19 0 27 -2 18 -5z m-398 -38 c0 -35 0 -35 -45 -35 -38 0 -45 3 -45 19 0 40
11 51 51 51 38 0 39 -1 39 -35z m-3201 15 c27 -14 67 -114 90 -227 19 -90 20
-111 10 -173 -11 -67 -11 -73 10 -111 20 -35 22 -49 17 -112 -4 -40 -6 -104
-6 -143 1 -85 -33 -261 -61 -316 -11 -21 -31 -44 -44 -50 -115 -52 -223 342
-195 714 17 235 61 385 120 415 30 15 36 16 59 3z m3285 -120 c1 -60 -2 -110
-6 -110 -5 0 -9 42 -10 93 0 50 -2 99 -3 107 -1 8 1 19 3 23 10 21 15 -11 16
-113z m-284 84 c0 -8 -4 -14 -10 -14 -5 0 -10 9 -10 21 0 11 5 17 10 14 6 -3
10 -13 10 -21z m613 -81 c-7 -2 -21 -2 -30 0 -10 3 -4 5 12 5 17 0 24 -2 18
-5z m-2693 -69 c0 -8 -5 -12 -10 -9 -6 4 -8 11 -5 16 9 14 15 11 15 -7z m457
-135 c26 21 55 19 34 -2 -6 -6 -11 -17 -11 -23 0 -7 -5 -25 -10 -40 l-11 -28
-24 25 c-33 33 -58 54 -67 55 -5 1 -12 2 -18 3 -20 2 -9 21 15 27 25 6 32 22
38 74 1 14 7 28 12 32 6 5 11 -20 13 -68 l3 -75 26 20z m-389 89 c-3 -7 -11
-13 -18 -13 -7 0 -15 6 -17 13 -3 7 4 12 17 12 13 0 20 -5 18 -12z m2385 -105
c-7 -2 -19 -2 -25 0 -7 3 -2 5 12 5 14 0 19 -2 13 -5z m-1646 -133 c35 -13 80
-83 118 -184 25 -66 26 -72 11 -105 -27 -61 -46 -162 -33 -166 7 -3 30 -11 52
-18 38 -13 40 -17 47 -63 4 -27 10 -139 14 -249 7 -219 -6 -347 -46 -480 -33
-105 -63 -153 -104 -161 -83 -15 -150 48 -209 198 -116 290 -129 802 -28 1069
36 94 77 141 147 169 1 0 14 -5 31 -10z m1962 -54 c-11 -9 -69 -14 -69 -6 0 6
17 10 37 10 20 0 34 -2 32 -4z m11 -136 c-14 -4 -38 -8 -55 -8 -29 1 -29 1 5
8 50 11 83 11 50 0z m9 -96 c2 -2 -12 -4 -32 -4 -20 0 -39 5 -42 11 -5 7 5 8
32 3 21 -4 40 -8 42 -10z m1655 -781 c-28 -56 -50 -85 -79 -105 -77 -54 -160
-46 -236 21 -48 42 -102 125 -75 115 9 -3 16 -11 16 -17 0 -6 3 -8 6 -4 3 3
29 -12 57 -33 115 -87 221 -67 307 58 19 28 36 49 38 47 3 -2 -13 -39 -34 -82z"/>
<path d="M1912 6135 c0 -16 2 -22 5 -12 2 9 2 23 0 30 -3 6 -5 -1 -5 -18z"/>
<path d="M4737 4683 c-13 -12 -7 -33 8 -33 8 0 15 9 15 20 0 20 -11 26 -23 13z"/>
<path d="M4827 4670 c-3 -13 0 -20 9 -20 8 0 14 6 14 14 0 8 6 17 13 19 6 3 2
6 -9 6 -14 1 -24 -7 -27 -19z"/>
<path d="M2590 4595 c0 -19 5 -35 10 -35 6 0 10 16 10 35 0 19 -4 35 -10 35
-5 0 -10 -16 -10 -35z"/>
<path d="M3362 3900 c0 -14 2 -19 5 -12 2 6 2 18 0 25 -3 6 -5 1 -5 -13z"/>
<path d="M6581 3441 c-8 -6 -9 -11 -3 -15 6 -3 14 -1 17 5 9 14 2 20 -14 10z"/>
<path d="M6615 3429 c-9 -28 1 -36 14 -10 7 12 7 22 2 26 -5 3 -13 -4 -16 -16z"/>
<path d="M6476 3414 c-9 -23 -7 -52 3 -58 5 -3 11 12 13 34 4 40 -5 53 -16 24z"/>
<path d="M6330 3176 c0 -19 5 -38 11 -41 15 -10 17 -4 11 38 -5 47 -22 49 -22
3z"/>
<path d="M6470 3176 c0 -19 4 -37 9 -40 5 -3 8 12 7 34 -1 49 -16 54 -16 6z"/>
<path d="M6610 3163 c0 -13 5 -23 10 -23 13 0 13 11 0 30 -8 12 -10 11 -10 -7z"/>
<path d="M6328 3113 c7 -3 16 -2 19 1 4 3 -2 6 -13 5 -11 0 -14 -3 -6 -6z"/>
<path d="M5236 3331 c-4 -7 -5 -15 -2 -18 9 -9 19 4 14 18 -4 11 -6 11 -12 0z"/>
<path d="M5175 3268 c-28 -15 -65 -50 -65 -60 0 -5 19 -8 42 -6 34 2 45 8 59
33 10 17 18 33 18 38 1 11 -31 8 -54 -5z"/>
<path d="M5300 3235 c7 -8 10 -21 7 -28 -6 -17 19 -77 33 -77 5 0 10 12 10 28
0 31 -34 92 -51 92 -8 0 -8 -4 1 -15z"/>
<path d="M5251 3178 c9 -7 14 -18 12 -24 -2 -6 3 -17 11 -23 8 -7 13 -18 10
-25 -6 -15 33 -29 42 -15 3 5 -8 20 -24 34 -16 14 -29 33 -28 42 0 10 -7 19
-19 21 -18 2 -18 1 -4 -10z"/>
<path d="M5156 3161 c-3 -5 1 -14 8 -20 16 -13 32 2 21 19 -8 12 -22 13 -29 1z"/>
<path d="M5208 3153 c7 -3 16 -2 19 1 4 3 -2 6 -13 5 -11 0 -14 -3 -6 -6z"/>
<path d="M5090 3107 c0 -34 33 -97 50 -97 11 0 13 52 4 86 -3 12 -17 27 -30
33 -23 10 -24 9 -24 -22z"/>
<path d="M5244 3086 c-3 -9 -12 -12 -21 -9 -11 4 -14 2 -9 -5 11 -18 30 -14
44 8 7 13 8 20 2 20 -6 0 -13 -6 -16 -14z"/>
<path d="M5261 3031 c-16 -17 -34 -31 -40 -31 -6 0 -11 -4 -11 -10 0 -19 45
-10 83 16 21 14 36 31 34 37 -8 24 -38 18 -66 -12z"/>
<path d="M3897 3383 c-4 -21 -2 -42 3 -47 7 -7 10 -4 10 6 0 9 5 18 11 20 7 2
5 13 -4 31 l-14 27 -6 -37z"/>
<path d="M3900 3310 c-9 -6 -10 -10 -3 -10 6 0 15 5 18 10 8 12 4 12 -15 0z"/>
<path d="M2194 2125 c-7 -17 -34 -21 -34 -5 0 6 -7 10 -15 10 -23 0 -18 -17 8
-24 20 -5 22 -10 19 -43 -5 -46 -2 -43 32 25 21 42 23 52 11 52 -9 0 -18 -7
-21 -15z m7 -18 c-10 -9 -11 -8 -5 6 3 10 9 15 12 12 3 -3 0 -11 -7 -18z"/>
<path d="M2251 1568 c0 -32 12 -113 22 -153 3 -11 6 -24 6 -30 1 -5 19 18 42
53 45 70 43 81 -13 124 -56 42 -58 42 -57 6z m41 -160 c-8 -8 -9 -4 -5 13 4
13 8 18 11 10 2 -7 -1 -18 -6 -23z"/>
<path d="M2341 1191 c-7 -12 -7 -22 -2 -26 5 -3 13 4 16 16 9 28 -1 36 -14 10z"/>
<path d="M3430 6790 c0 -5 16 -10 36 -10 21 0 33 4 29 10 -3 6 -19 10 -36 10
-16 0 -29 -4 -29 -10z"/>
<path d="M1856 6775 c-10 -8 -22 -16 -26 -17 -4 -2 -11 -13 -14 -26 -10 -32
11 -36 78 -17 l56 17 -21 29 c-22 32 -44 36 -73 14z"/>
<path d="M3538 6783 c6 -2 18 -2 25 0 6 3 1 5 -13 5 -14 0 -19 -2 -12 -5z"/>
<path d="M3623 6783 c9 -2 25 -2 35 0 9 3 1 5 -18 5 -19 0 -27 -2 -17 -5z"/>
<path d="M3718 6773 c6 -2 18 -2 25 0 6 3 1 5 -13 5 -14 0 -19 -2 -12 -5z"/>
<path d="M3808 6773 c12 -2 30 -2 40 0 9 3 -1 5 -23 4 -22 0 -30 -2 -17 -4z"/>
<path d="M3900 6770 c0 -5 7 -10 16 -10 8 0 12 5 9 10 -3 6 -10 10 -16 10 -5
0 -9 -4 -9 -10z"/>
<path d="M3985 6769 c-15 -6 -11 -8 18 -8 20 -1 37 1 37 3 0 9 -37 12 -55 5z"/>
<path d="M4080 6760 c0 -5 7 -10 15 -10 8 0 15 5 15 10 0 6 -7 10 -15 10 -8 0
-15 -4 -15 -10z"/>
<path d="M4165 6760 c-4 -6 5 -10 20 -10 15 0 24 4 20 10 -3 6 -12 10 -20 10
-8 0 -17 -4 -20 -10z"/>
<path d="M4265 6750 c3 -5 8 -10 11 -10 2 0 4 5 4 10 0 6 -5 10 -11 10 -5 0
-7 -4 -4 -10z"/>
<path d="M4350 6750 c0 -5 4 -10 9 -10 6 0 13 5 16 10 3 6 -1 10 -9 10 -9 0
-16 -4 -16 -10z"/>
<path d="M4438 6743 c7 -3 16 -2 19 1 4 3 -2 6 -13 5 -11 0 -14 -3 -6 -6z"/>
<path d="M4528 6738 c9 -9 15 -9 24 0 9 9 7 12 -12 12 -19 0 -21 -3 -12 -12z"/>
<path d="M2952 6717 c-29 -31 -29 -81 -1 -101 19 -13 24 -13 44 0 27 18 46 61
41 89 -3 11 -5 23 -5 28 -2 17 -59 6 -79 -16z"/>
<path d="M3075 6727 c-2 -6 -3 -25 -3 -42 1 -16 -2 -42 -6 -57 -7 -24 -5 -28
12 -28 18 0 21 6 19 43 -1 23 2 52 6 63 5 16 3 23 -8 28 -9 3 -18 0 -20 -7z"/>
<path d="M4618 6733 c7 -3 16 -2 19 1 4 3 -2 6 -13 5 -11 0 -14 -3 -6 -6z"/>
<path d="M4703 6733 c9 -2 23 -2 30 0 6 3 -1 5 -18 5 -16 0 -22 -2 -12 -5z"/>
<path d="M4785 6730 c-3 -5 1 -10 10 -10 9 0 13 5 10 10 -3 6 -8 10 -10 10 -2
0 -7 -4 -10 -10z"/>
<path d="M3135 6710 c-21 -24 -24 -72 -5 -94 36 -45 109 20 95 85 -6 25 -11
29 -39 29 -20 0 -40 -8 -51 -20z"/>
<path d="M3266 6718 c-3 -7 -7 -31 -9 -53 -2 -22 -6 -47 -8 -55 -3 -10 3 -15
16 -15 16 0 20 7 21 45 1 25 3 54 5 64 5 22 -19 35 -25 14z"/>
<path d="M3343 6720 c-42 -17 -59 -93 -27 -124 38 -38 124 2 124 57 0 48 -53
84 -97 67z m-20 -55 c-3 -9 -8 -14 -10 -11 -3 3 -2 9 2 15 9 16 15 13 8 -4z"/>
<path d="M4873 6723 c9 -2 25 -2 35 0 9 3 1 5 -18 5 -19 0 -27 -2 -17 -5z"/>
<path d="M3449 6713 c-1 -4 -2 -26 -3 -48 -2 -22 -6 -50 -11 -62 -6 -19 -4
-23 13 -23 17 0 21 8 24 53 2 28 6 58 9 66 2 8 -4 17 -13 19 -10 2 -18 0 -19
-5z"/>
<path d="M3540 6713 c-51 -19 -66 -85 -28 -120 17 -15 20 -15 46 4 33 24 47
87 25 109 -15 15 -19 16 -43 7z"/>
<path d="M3631 6673 c1 -21 -2 -53 -6 -70 -6 -27 -4 -33 9 -33 9 0 16 3 17 8
0 4 2 25 3 47 2 22 7 50 11 63 6 18 4 22 -14 22 -18 0 -21 -5 -20 -37z"/>
<path d="M3712 6703 c-20 -8 -46 -64 -33 -73 7 -3 9 -14 6 -23 -4 -10 1 -20
14 -27 18 -9 26 -7 51 19 58 57 31 132 -38 104z"/>
<path d="M3815 6670 c4 -16 1 -45 -6 -64 -14 -39 -10 -50 14 -41 10 4 15 19
14 43 -1 20 3 49 7 65 7 24 5 27 -14 27 -19 0 -21 -4 -15 -30z"/>
<path d="M3892 6694 c-20 -9 -44 -62 -31 -69 6 -4 8 -13 5 -20 -7 -20 20 -38
48 -31 28 7 49 51 44 92 -2 23 -9 29 -28 31 -14 1 -31 -1 -38 -3z"/>
<path d="M3999 6688 c0 -2 -1 -23 -3 -48 -1 -25 -6 -53 -10 -62 -6 -14 -4 -18
13 -18 19 0 21 6 21 49 0 28 5 53 10 56 13 8 3 25 -16 25 -8 0 -14 -1 -15 -2z"/>
<path d="M4060 6670 c-22 -22 -26 -56 -7 -63 9 -4 9 -6 -1 -6 -18 -1 4 -41 22
-41 41 0 94 103 63 122 -22 14 -57 8 -77 -12z"/>
<path d="M4179 6678 c0 -2 -1 -23 -3 -48 -1 -25 -6 -53 -10 -62 -6 -14 -4 -18
13 -18 19 0 21 6 21 49 0 28 5 53 10 56 17 10 11 25 -10 25 -11 0 -20 -1 -21
-2z"/>
<path d="M4240 6660 c-26 -26 -24 -85 4 -103 19 -12 24 -11 44 8 23 22 42 79
35 103 -7 19 -61 14 -83 -8z"/>
<path d="M4365 6669 c-5 -6 -9 -28 -10 -48 -1 -20 -6 -46 -10 -58 -6 -19 -4
-23 13 -23 17 0 21 8 24 53 2 28 6 58 9 66 5 17 -17 26 -26 10z"/>
<path d="M4443 6669 c-41 -15 -56 -77 -29 -114 28 -39 86 18 86 84 0 32 -22
43 -57 30z"/>
<path d="M4539 6663 c-1 -4 -2 -26 -4 -48 -1 -22 -4 -49 -6 -60 -3 -13 1 -20
11 -20 11 0 17 15 21 50 3 28 8 56 10 64 2 8 -4 17 -13 19 -10 2 -18 0 -19 -5z"/>
<path d="M4603 6648 c-11 -13 -23 -31 -27 -41 -7 -21 22 -77 39 -77 21 0 55
46 55 73 0 14 5 29 12 33 7 5 5 11 -7 21 -27 19 -49 16 -72 -9z"/>
<path d="M4715 6650 c-3 -6 -3 -19 0 -30 3 -11 1 -36 -6 -55 -7 -19 -10 -38
-6 -42 13 -13 31 17 33 55 1 20 5 47 9 60 5 16 4 22 -8 22 -9 0 -19 -5 -22
-10z"/>
<path d="M4789 6650 c-9 -5 -22 -23 -28 -39 -10 -24 -10 -34 3 -60 9 -17 21
-31 27 -31 20 0 59 53 59 81 0 16 5 29 11 29 8 0 8 5 -1 15 -14 17 -47 19 -71
5z"/>
<path d="M4888 6603 c-3 -27 -8 -56 -12 -65 -6 -14 -4 -18 12 -18 17 0 21 8
24 48 3 26 8 55 12 65 6 13 4 17 -12 17 -17 0 -21 -8 -24 -47z"/>
<path d="M4952 6627 c-25 -27 -28 -64 -8 -92 13 -18 16 -18 41 -5 36 19 51 51
36 79 -8 15 -9 21 -1 21 6 0 8 5 5 10 -11 18 -51 11 -73 -13z"/>
<path d="M5063 6598 c0 -24 -3 -54 -8 -67 -7 -19 -5 -22 11 -19 14 2 19 12 20
38 0 19 4 47 8 63 7 23 5 27 -12 27 -16 0 -19 -7 -19 -42z"/>
<path d="M5323 6630 c-41 -16 -56 -78 -29 -115 13 -18 14 -18 39 1 45 33 64
105 31 118 -9 3 -16 6 -17 5 -1 0 -12 -4 -24 -9z"/>
<path d="M5411 6593 c2 -21 -1 -50 -5 -65 -7 -22 -5 -28 8 -28 12 0 16 10 16
44 0 25 5 48 10 51 18 11 11 35 -10 35 -17 0 -20 -6 -19 -37z"/>
<path d="M5475 6605 c-32 -31 -33 -78 -3 -99 21 -15 24 -14 41 3 19 18 40 98
31 113 -10 16 -46 7 -69 -17z"/>
<path d="M2464 6613 c3 -6 2 -14 -4 -18 -15 -9 -12 -81 3 -94 11 -8 14 -7 16
7 5 49 1 96 -10 106 -9 8 -10 8 -5 -1z"/>
<path d="M2944 6581 c-8 -8 -4 -70 6 -96 7 -18 15 -25 26 -21 8 3 13 2 10 -3
-8 -12 336 -22 351 -9 7 6 13 23 13 38 0 58 -9 56 248 54 255 -2 195 4 -203
21 -99 4 -240 10 -313 14 -74 3 -136 4 -138 2z"/>
<path d="M3913 6533 c32 -2 81 -2 110 0 29 2 3 3 -58 3 -60 0 -84 -1 -52 -3z"/>
<path d="M2510 6191 c0 -6 5 -13 10 -16 6 -3 10 1 10 9 0 9 -4 16 -10 16 -5 0
-10 -4 -10 -9z"/>
<path d="M2515 6080 c-3 -5 -1 -10 4 -10 6 0 11 5 11 10 0 6 -2 10 -4 10 -3 0
-8 -4 -11 -10z"/>
<path d="M4340 5864 c-13 -33 -13 -91 0 -99 6 -3 10 -3 11 2 4 51 6 123 3 123
-3 0 -9 -12 -14 -26z"/>
<path d="M1710 5463 c0 -109 8 -135 35 -113 11 9 13 16 5 24 -5 5 -10 50 -10
98 0 72 -3 88 -15 88 -12 0 -15 -17 -15 -97z"/>
<path d="M2575 5490 c-3 -5 -1 -10 4 -10 6 0 11 5 11 10 0 6 -2 10 -4 10 -3 0
-8 -4 -11 -10z"/>
<path d="M3615 5390 l30 -7 -27 -7 c-16 -5 -38 -6 -51 -3 -12 4 -29 2 -37 -3
-9 -5 -19 -5 -26 1 -8 7 -25 7 -51 0 -21 -5 -47 -9 -58 -8 -18 2 -20 -5 -23
-56 -3 -56 10 -93 28 -82 4 3 22 -2 39 -11 17 -8 35 -13 41 -9 14 9 13 32 -2
37 -8 3 -1 17 20 37 33 34 48 28 40 -15 -2 -12 3 -19 12 -19 10 0 15 10 15 32
1 18 4 35 8 39 4 4 7 -5 7 -19 0 -27 22 -37 35 -16 4 6 14 8 22 4 9 -3 26 2
39 10 22 14 24 14 25 -2 1 -10 2 -22 4 -28 1 -5 3 -14 4 -20 2 -5 11 13 21 40
11 31 19 42 19 28 1 -12 4 -29 7 -38 5 -13 8 -14 15 -3 5 7 21 13 36 13 22 0
29 5 31 23 3 19 8 23 27 18 13 -3 27 -1 31 5 8 13 -16 31 -34 24 -7 -2 -23 1
-37 7 -19 8 -31 8 -51 -1 -19 -8 -30 -9 -39 -1 -7 6 -24 8 -38 5 -14 -4 -28
-2 -31 4 -4 6 -4 11 1 12 4 0 19 3 32 5 49 9 33 14 -40 13 -53 -1 -66 -3 -44
-9z"/>
<path d="M3929 5336 c23 -28 69 -48 74 -33 5 16 37 -9 37 -29 0 -8 7 -14 15
-14 18 0 18 7 4 49 -9 24 -17 31 -38 31 -14 0 -44 3 -66 6 -37 6 -39 5 -26
-10z"/>
<path d="M3300 5311 c0 -17 5 -33 10 -36 6 -4 10 8 10 29 0 20 -4 36 -10 36
-5 0 -10 -13 -10 -29z"/>
<path d="M1710 5045 l0 -247 23 6 c12 3 25 6 30 6 4 0 7 105 7 233 0 180 -3
234 -12 234 -7 0 -21 4 -30 8 -17 7 -18 -9 -18 -240z m50 100 c0 -57 -4 -95
-10 -95 -11 0 -14 172 -3 183 12 13 13 7 13 -88z m0 -221 c0 -61 -4 -93 -10
-89 -5 3 -10 46 -10 96 0 53 4 89 10 89 6 0 10 -39 10 -96z"/>
<path d="M3865 5261 c-3 -5 -1 -12 5 -16 5 -3 10 1 10 9 0 18 -6 21 -15 7z"/>
<path d="M3740 5150 c20 -13 53 -13 45 0 -3 6 -18 10 -33 10 -21 0 -24 -2 -12
-10z"/>
<path d="M2635 5070 c-3 -5 0 -10 8 -10 20 0 49 -67 38 -88 -4 -9 -11 -33 -15
-52 -4 -26 -3 -31 5 -20 8 11 9 8 4 -15 -8 -36 -10 -39 -24 -30 -6 3 -11 21
-11 40 0 31 -2 34 -31 33 -25 -1 -34 -7 -43 -30 -6 -15 -16 -28 -23 -28 -13 0
-18 -32 -7 -43 4 -3 16 0 28 8 28 21 46 19 74 -7 22 -20 24 -21 18 -4 -5 16
-4 17 9 6 22 -18 19 -76 -6 -101 -24 -24 -23 -27 19 -35 25 -5 32 -3 32 10 0
9 4 16 10 16 5 0 7 -7 4 -15 -7 -17 14 -20 36 -4 11 8 12 12 3 16 -7 2 -13 16
-13 29 0 13 -5 24 -11 24 -6 0 -8 -9 -4 -20 5 -15 2 -20 -12 -20 -25 0 -26 73
-1 78 9 2 18 -5 21 -15 3 -13 5 -10 6 8 0 14 6 30 13 37 8 8 3 10 -24 6 -33
-6 -36 -4 -39 22 -2 16 -3 39 -1 52 4 29 38 29 46 0 4 -17 8 -20 16 -12 8 8 6
21 -9 45 -12 19 -21 28 -21 22 0 -7 -7 -13 -15 -13 -11 0 -15 11 -15 41 0 22
-4 38 -8 35 -5 -3 -9 1 -9 9 0 8 4 12 9 9 4 -3 8 2 8 10 0 18 -55 23 -65 6z"/>
<path d="M2710 5072 c0 -5 7 -17 15 -28 13 -17 14 -17 15 -1 0 9 7 17 16 17 8
0 12 5 9 10 -7 12 -55 14 -55 2z"/>
<path d="M1860 5046 c0 -20 5 -26 21 -26 21 0 21 0 -2 -18 -28 -23 -30 -73 -4
-102 16 -18 16 -20 2 -20 -11 0 -17 -8 -17 -25 0 -14 5 -25 10 -25 6 0 3 -14
-6 -31 -9 -19 -13 -41 -9 -57 9 -36 20 -17 33 58 7 36 23 93 38 128 19 47 23
67 14 76 -8 10 -6 15 10 19 11 3 20 12 20 21 0 12 -8 16 -32 15 -18 -1 -43 1
-55 5 -20 6 -23 4 -23 -18z"/>
<path d="M6212 5040 c2 -6 7 -11 11 -11 4 1 21 1 37 1 45 0 36 16 -11 19 -27
1 -40 -2 -37 -9z"/>
<path d="M6416 5039 c27 -8 31 -13 26 -36 -4 -26 -3 -27 10 -9 10 13 22 17 37
13 12 -3 21 0 22 6 0 7 5 1 11 -13 l11 -25 5 23 c2 13 1 31 -2 39 -6 14 -8 14
-20 -2 -12 -16 -15 -16 -44 -1 -17 9 -44 16 -59 15 l-28 -1 31 -9z"/>
<path d="M2575 5019 c-11 -16 -1 -19 13 -3 7 8 8 14 3 14 -5 0 -13 -5 -16 -11z"/>
<path d="M6383 5023 c-7 -2 -13 -9 -13 -14 0 -6 4 -8 9 -5 5 3 11 -10 13 -29
2 -19 0 -35 -4 -35 -4 0 -8 -11 -8 -26 l0 -25 25 27 c22 24 28 26 51 16 33
-16 39 -15 24 2 -6 8 -21 16 -33 18 -17 2 -23 11 -25 41 -3 35 -11 42 -39 30z"/>
<path d="M6227 4983 c-4 -3 -7 -16 -6 -27 0 -19 1 -19 10 3 10 24 8 36 -4 24z"/>
<path d="M6481 4974 c0 -11 3 -14 6 -6 3 7 2 16 -1 19 -3 4 -6 -2 -5 -13z"/>
<path d="M2847 4965 c-8 -18 -48 -20 -67 -2 -12 10 -12 9 -1 -5 17 -22 54 -23
71 -3 7 9 11 18 8 21 -3 3 -8 -2 -11 -11z"/>
<path d="M2798 4922 c-13 -2 -18 -13 -18 -38 0 -30 3 -34 25 -34 14 0 25 4 25
10 0 5 -7 7 -15 4 -11 -5 -15 1 -15 20 0 17 4 24 14 20 7 -3 16 1 19 9 5 14
-3 16 -35 9z"/>
<path d="M6429 4890 c-1 -14 0 -33 1 -43 1 -16 -3 -18 -29 -12 -28 6 -31 4
-31 -19 0 -14 5 -26 10 -26 6 0 10 -17 10 -37 0 -51 12 -67 41 -59 47 12 53
21 34 47 l-17 24 6 -27 c5 -20 2 -28 -7 -28 -11 0 -13 12 -9 53 2 28 8 56 13
61 9 10 1 66 -12 81 -5 5 -9 -1 -10 -15z"/>
<path d="M2571 4831 c-9 -6 -10 -10 -2 -16 7 -3 9 -15 6 -25 -4 -11 4 -29 19
-47 23 -26 26 -27 40 -11 9 10 11 13 4 8 -15 -12 -31 -13 -24 -1 3 5 -1 14 -9
21 -19 16 -19 34 0 50 13 11 13 15 3 21 -16 11 -20 11 -37 0z"/>
<path d="M6210 4831 c0 -6 4 -13 10 -16 6 -3 7 1 4 9 -7 18 -14 21 -14 7z"/>
<path d="M2766 4804 c-5 -14 -4 -15 9 -4 17 14 19 20 6 20 -5 0 -12 -7 -15
-16z"/>
<path d="M2805 4781 c-3 -5 -1 -12 5 -16 5 -3 10 1 10 9 0 18 -6 21 -15 7z"/>
<path d="M6230 4766 c0 -22 3 -27 11 -19 8 8 8 16 0 30 -9 16 -10 14 -11 -11z"/>
<path d="M6537 4753 c-11 -10 -8 -63 3 -63 6 0 10 16 10 35 0 36 -2 40 -13 28z"/>
<path d="M1710 4735 c-1 -3 -1 -58 -1 -122 0 -109 1 -118 20 -125 20 -7 21
-15 21 -177 l0 -169 -27 -10 c-18 -7 -22 -11 -10 -11 21 -1 22 -12 0 -49 -13
-23 -15 -37 -8 -58 17 -48 35 -41 35 13 0 27 7 58 15 70 10 15 16 58 19 154 5
165 -5 494 -14 478 -6 -8 -9 -8 -14 0 -7 11 -36 16 -36 6z m50 -141 c0 -47 -4
-83 -8 -80 -12 7 -14 166 -2 166 6 0 10 -34 10 -86z"/>
<path d="M6225 4702 c14 -13 121 -24 109 -12 -6 6 -34 12 -64 15 -33 4 -51 2
-45 -3z"/>
<path d="M2294 4605 c0 -49 1 -71 3 -48 2 23 2 64 0 90 -2 26 -3 8 -3 -42z"/>
<path d="M2701 4655 c12 -12 28 -14 75 -8 51 6 55 8 29 14 -16 4 -50 7 -75 8
-40 1 -43 -1 -29 -14z"/>
<path d="M6138 4595 c2 -14 6 -25 8 -25 2 0 4 11 4 25 0 14 -4 25 -9 25 -4 0
-6 -11 -3 -25z"/>
<path d="M1653 4503 c9 -2 23 -2 30 0 6 3 -1 5 -18 5 -16 0 -22 -2 -12 -5z"/>
<path d="M2666 4502 c-3 -5 1 -9 9 -9 8 0 12 4 9 9 -3 4 -7 8 -9 8 -2 0 -6 -4
-9 -8z"/>
<path d="M3999 4448 c21 -29 46 -68 55 -85 9 -18 20 -33 24 -33 4 0 45 -23 91
-50 46 -28 86 -49 88 -47 1 2 -20 49 -48 105 l-52 101 -91 31 c-50 16 -95 30
-99 30 -4 0 10 -24 32 -52z"/>
<path d="M2293 4425 c0 -38 2 -53 4 -32 2 20 2 52 0 70 -2 17 -4 1 -4 -38z"/>
<path d="M5348 4460 l-37 -31 30 -41 c16 -23 41 -68 56 -100 14 -32 27 -58 30
-58 6 0 62 64 73 86 10 18 7 29 -26 75 -34 48 -78 99 -86 99 -2 0 -20 -14 -40
-30z"/>
<path d="M2680 4415 c0 -8 4 -15 10 -15 5 0 7 7 4 15 -4 8 -8 15 -10 15 -2 0
-4 -7 -4 -15z"/>
<path d="M3220 4390 c-10 -6 95 -10 309 -10 178 0 322 2 320 4 -9 10 -615 15
-629 6z"/>
<path d="M3153 4383 c9 -2 23 -2 30 0 6 3 -1 5 -18 5 -16 0 -22 -2 -12 -5z"/>
<path d="M5510 4380 c0 -5 4 -10 9 -10 5 0 12 -10 15 -22 3 -13 15 -34 27 -48
11 -14 18 -19 14 -12 -3 6 0 12 7 13 7 0 36 2 63 3 46 3 102 22 93 32 -3 2
-47 6 -98 9 -85 5 -133 14 -84 16 10 0 33 2 49 3 17 1 102 6 190 10 88 5 162
10 164 12 2 2 -98 4 -222 4 -145 0 -227 -4 -227 -10z"/>
<path d="M5780 4330 c0 -5 9 -10 19 -10 11 0 23 5 26 10 4 6 -5 10 -19 10 -14
0 -26 -4 -26 -10z"/>
<path d="M1860 4299 c0 -20 4 -21 45 -17 50 6 53 3 28 -24 -15 -17 -18 -39
-14 -108 1 -8 0 -26 -1 -39 -5 -45 20 -32 75 39 59 76 94 108 123 113 11 1 28
8 39 15 17 10 10 12 -45 14 -107 3 -116 4 -125 10 -6 3 -36 9 -67 12 -55 7
-58 6 -58 -15z"/>
<path d="M5218 4273 c23 -2 59 -2 80 0 20 2 1 4 -43 4 -44 0 -61 -2 -37 -4z"/>
<path d="M2676 4244 c-15 -39 1 -114 24 -114 13 0 23 63 15 99 -7 33 -29 41
-39 15z"/>
<path d="M4280 4236 c0 -14 19 -16 174 -16 106 0 177 4 181 10 4 6 -26 10 -83
10 -49 0 -130 3 -180 6 -81 6 -92 5 -92 -10z"/>
<path d="M4778 4225 c-32 -18 -42 -44 -29 -77 11 -29 69 -81 82 -73 5 4 17 1
26 -5 17 -11 17 -11 0 -6 -11 4 -16 2 -11 -5 3 -6 15 -9 25 -6 11 3 19 1 19
-3 0 -5 20 -12 45 -15 60 -10 119 18 123 58 4 34 -16 67 -60 98 -26 18 -30 19
-18 5 14 -18 14 -18 -7 -6 -12 8 -20 17 -17 21 7 11 -26 19 -52 13 -14 -4 -24
-2 -24 5 0 16 -70 13 -102 -4z m25 -10 c-27 -12 -33 -20 -33 -46 0 -22 9 -40
33 -62 23 -22 26 -27 9 -18 -22 11 -62 66 -62 84 0 15 49 57 67 57 11 -1 5 -6
-14 -15z m156 -89 c31 -14 43 -22 26 -18 -40 9 -104 9 -135 -1 l-25 -8 24 21
c23 20 24 25 6 90 -5 18 1 13 21 -17 19 -29 43 -49 83 -67z m91 -18 c0 -22
-26 -58 -42 -58 -4 0 1 9 12 20 25 25 25 36 0 80 l-21 35 26 -28 c14 -15 25
-38 25 -49z m-77 -65 c-7 -2 -19 -2 -25 0 -7 3 -2 5 12 5 14 0 19 -2 13 -5z"/>
<path d="M5035 4229 c8 -12 305 -10 305 3 0 4 -70 8 -156 8 -108 0 -153 -3
-149 -11z"/>
<path d="M4300 4186 c0 -20 -7 -19 187 -20 124 -1 163 2 163 12 0 9 -37 12
-152 12 -84 0 -163 3 -175 6 -17 5 -23 2 -23 -10z"/>
<path d="M5060 4189 c0 -22 34 -28 138 -23 137 7 160 9 168 17 4 3 -64 7 -150
9 -86 2 -156 0 -156 -3z"/>
<path d="M6277 4177 c23 -41 96 -127 107 -127 16 0 66 23 66 31 0 14 -57 63
-90 77 -59 25 -91 32 -83 19z"/>
<path d="M2795 4115 c-16 -14 -25 -25 -19 -25 6 0 21 11 34 25 30 32 24 31
-15 0z"/>
<path d="M4328 4115 c-4 -4 -5 -12 -2 -17 7 -12 344 -9 344 3 0 5 -53 9 -117
9 -65 0 -140 3 -168 6 -27 3 -53 3 -57 -1z"/>
<path d="M5113 4105 c2 -5 48 -11 103 -13 105 -3 210 5 199 16 -11 12 -305 8
-302 -3z"/>
<path d="M4160 4084 c1 -5 7 -34 14 -64 l12 -55 52 -5 c78 -8 89 0 44 34 -20
17 -56 45 -79 64 -24 19 -43 30 -43 26z"/>
<path d="M5555 4021 c-25 -34 -43 -65 -40 -71 5 -8 114 -4 123 5 4 4 -25 115
-31 122 -3 2 -26 -23 -52 -56z"/>
<path d="M1927 4063 c-4 -3 -7 -13 -7 -22 1 -13 3 -13 11 2 11 19 8 33 -4 20z"/>
<path d="M4340 4051 c0 -5 8 -12 18 -14 28 -8 292 -5 297 4 3 4 14 5 25 2 11
-3 20 0 20 6 0 8 -54 11 -180 11 -105 0 -180 -4 -180 -9z"/>
<path d="M5140 4050 c0 -12 256 -12 285 0 12 5 -38 9 -132 9 -96 1 -153 -3
-153 -9z"/>
<path d="M3950 4003 c0 -5 5 -15 10 -23 8 -12 10 -11 10 8 0 12 -4 22 -10 22
-5 0 -10 -3 -10 -7z"/>
<path d="M4147 3989 c4 -13 8 -18 11 -10 2 7 -1 18 -6 23 -8 8 -9 4 -5 -13z"/>
<path d="M4895 4003 c-76 -4 -111 -15 -99 -34 3 -5 -2 -9 -10 -9 -9 0 -16 5
-16 10 0 13 -377 14 -385 1 -10 -17 539 -28 835 -17 260 10 298 20 100 26 -91
3 -166 2 -168 -2 -2 -5 -8 -8 -13 -8 -6 0 -5 8 1 20 10 19 8 20 -77 18 -48 -1
-124 -4 -168 -5z"/>
<path d="M4161 3934 c0 -11 3 -14 6 -6 3 7 2 16 -1 19 -3 4 -6 -2 -5 -13z"/>
<path d="M4431 3920 c-7 -4 -9 -10 -5 -12 14 -7 665 -8 677 -1 15 9 68 9 74 0
6 -10 285 3 297 14 12 11 -1026 10 -1043 -1z"/>
<path d="M1766 3591 c-4 -5 -2 -12 3 -15 5 -4 12 -2 15 3 4 5 2 12 -3 15 -5 4
-12 2 -15 -3z"/>
<path d="M1643 3419 c14 -8 22 -8 30 0 8 8 3 11 -18 11 -26 -1 -28 -2 -12 -11z"/>
<path d="M1705 3410 c3 -5 12 -7 20 -3 21 7 19 13 -6 13 -11 0 -18 -4 -14 -10z"/>
<path d="M6790 2842 c0 -38 1 -38 33 -35 83 10 92 18 57 53 -12 12 -33 20 -55
20 -34 0 -35 -1 -35 -38z"/>
<path d="M6694 2846 c-3 -9 1 -23 10 -31 15 -15 16 -14 16 9 0 29 -18 44 -26
22z"/>
<path d="M6752 2743 c-7 -12 -6 -22 3 -30 15 -14 25 -7 25 18 0 26 -17 33 -28
12z"/>
<path d="M6696 2734 c-8 -21 -8 -21 9 -28 11 -4 15 1 15 19 0 28 -15 33 -24 9z"/>
<path d="M6754 2656 c-8 -21 3 -49 16 -41 5 3 10 15 10 25 0 25 -18 36 -26 16z"/>
<path d="M6696 2644 c-7 -18 0 -34 15 -34 12 0 12 37 0 44 -5 3 -12 -1 -15
-10z"/>
<path d="M6835 2650 c-4 -6 5 -10 20 -10 15 0 24 4 20 10 -3 6 -12 10 -20 10
-8 0 -17 -4 -20 -10z"/>
<path d="M6762 2540 c0 -14 2 -19 5 -12 2 6 2 18 0 25 -3 6 -5 1 -5 -13z"/>
<path d="M6701 2534 c0 -11 3 -14 6 -6 3 7 2 16 -1 19 -3 4 -6 -2 -5 -13z"/>
<path d="M6835 2540 c3 -5 10 -10 16 -10 5 0 9 5 9 10 0 6 -7 10 -16 10 -8 0
-12 -4 -9 -10z"/>
<path d="M6823 2463 c-22 -8 -14 -33 10 -32 12 1 30 -2 40 -6 24 -10 23 21 -2
35 -21 11 -29 11 -48 3z"/>
<path d="M6742 2438 c-7 -7 -11 -23 -11 -37 2 -25 2 -25 6 -3 3 15 10 22 19
18 8 -3 14 1 14 9 0 20 -15 26 -28 13z"/>
<path d="M6697 2434 c-8 -8 3 -34 14 -34 11 0 12 27 0 34 -4 3 -11 3 -14 0z"/>
</g>
</svg>
