<?xml version="1.0" standalone="no"?>
<!DOCTYPE svg PUBLIC "-//W3C//DTD SVG 20010904//EN"
 "http://www.w3.org/TR/2001/REC-SVG-20010904/DTD/svg10.dtd">
<svg version="1.0" xmlns="http://www.w3.org/2000/svg"
 width="2794.000000pt" height="2794.000000pt" viewBox="0 0 2794.000000 2794.000000"
 preserveAspectRatio="xMidYMid meet">
<metadata>
Created by potrace 1.14, written by Peter Selinger 2001-2017
</metadata>
<g transform="translate(0.000000,2794.000000) scale(0.100000,-0.100000)"
fill="#000000" stroke="none">
<path d="M0 13970 l0 -13970 13970 0 13970 0 0 13970 0 13970 -13970 0 -13970
0 0 -13970z m24230 6707 c0 -10 -4 -15 -10 -12 -5 3 -10 18 -10 33 0 21 2 24
10 12 5 -8 10 -23 10 -33z m308 -2279 c7 -7 12 -21 12 -32 0 -32 -60 -144 -88
-167 -39 -30 -81 -22 -106 20 -19 33 -19 33 3 77 11 25 28 47 36 50 8 4 15 12
15 19 0 18 16 27 60 36 52 10 55 10 68 -3z m-7033 -2608 c3 -5 -3 -10 -14 -10
-12 0 -21 5 -21 10 0 6 6 10 14 10 8 0 18 -4 21 -10z m351 -821 c5 -4 20 -6
32 -2 29 7 38 -18 23 -68 -12 -40 -30 -53 -32 -21 0 14 -2 14 -9 -3 -5 -11
-11 -33 -15 -48 -8 -38 -29 -29 -35 14 -5 30 -6 31 -12 12 -7 -25 -23 -30 -31
-10 -3 8 -8 44 -12 81 l-8 68 44 -7 c24 -4 49 -11 55 -16z m-459 -564 c35 -62
36 -64 29 -88 -7 -28 -56 -56 -56 -32 0 17 -16 20 -25 5 -3 -5 -17 -10 -31
-10 -13 0 -24 5 -24 10 0 6 -11 10 -24 10 -17 0 -26 7 -30 26 -11 44 1 64 40
64 31 0 34 2 34 31 0 28 2 30 32 27 27 -2 37 -11 55 -43z m413 20 c17 -9 30
-24 30 -34 0 -25 -11 -33 -27 -20 -10 9 -13 7 -13 -9 0 -32 -23 -45 -38 -21
-10 16 -16 18 -26 10 -17 -14 -26 5 -26 55 0 32 2 34 35 34 20 0 49 -7 65 -15z
m-360 -34 c0 -6 -4 -13 -10 -16 -5 -3 -10 1 -10 9 0 9 5 16 10 16 6 0 10 -4
10 -9z m-150 -270 c20 -6 24 -13 22 -37 -6 -52 -28 -76 -70 -72 -32 3 -37 7
-45 37 -14 55 -2 81 36 80 17 -1 43 -4 57 -8z m100 -59 c0 -34 -23 -68 -38
-58 -26 16 -10 86 19 86 14 0 19 -7 19 -28z m-52 -131 c2 -6 12 -11 23 -11 11
0 19 -7 19 -17 0 -13 -3 -14 -12 -5 -20 20 -28 14 -28 -22 0 -41 -12 -51 -40
-34 -15 10 -24 10 -39 1 -36 -22 -91 4 -91 43 0 22 4 24 45 24 41 0 45 2 45
24 0 22 2 23 37 15 21 -4 39 -13 41 -18z m-488 -81 c0 -11 -14 -25 -32 -34
-41 -21 -48 -20 -48 4 0 11 5 20 10 20 6 0 10 6 10 14 0 8 6 16 13 19 22 7 47
-5 47 -23z m37 -2 c-3 -8 -6 -5 -6 6 -1 11 2 17 5 13 3 -3 4 -12 1 -19z m816
-9 c12 -7 23 -13 25 -14 2 -2 -4 -17 -13 -35 l-16 -32 -23 25 c-12 13 -29 26
-36 29 -21 7 -4 38 20 38 12 0 31 -5 43 -11z m-873 -201 c49 -16 51 -36 10
-87 -25 -32 -34 -37 -60 -33 -38 5 -62 50 -35 64 8 5 15 19 15 32 0 39 10 42
70 24z m130 -32 c0 -20 -22 -56 -35 -56 -16 0 -19 17 -9 44 5 14 44 24 44 12z
m-70 -65 c0 -11 -4 -22 -9 -25 -11 -7 -23 22 -15 35 9 16 24 10 24 -10z m-67
-88 c13 -8 7 -18 -21 -31 -23 -11 -29 -10 -39 5 -24 31 -16 45 20 38 17 -4 35
-9 40 -12z m452 -63 c4 -6 3 -34 -1 -63 l-7 -52 -15 38 c-8 20 -19 37 -23 37
-14 0 -10 38 4 43 21 9 36 8 42 -3z m255 -842 c-7 -31 -10 -61 -6 -66 3 -6 -3
-31 -14 -57 -11 -26 -20 -69 -20 -96 0 -60 -18 -139 -32 -139 -12 0 -2 185 13
243 6 21 12 50 14 65 10 70 24 125 34 135 6 6 12 20 13 32 1 11 3 2 5 -20 3
-22 -1 -65 -7 -97z m-425 -247 c0 -33 -3 -63 -7 -67 -12 -12 -9 -25 5 -22 19
4 57 -21 57 -37 0 -17 -16 -20 -25 -5 -11 17 -25 0 -25 -30 0 -34 -18 -49 -26
-23 -3 10 -10 26 -15 35 -12 23 -12 54 1 76 5 9 12 43 15 75 8 74 20 73 20 -2z
m-85 -111 c0 -5 -5 -10 -11 -10 -5 0 -7 5 -4 10 3 6 8 10 11 10 2 0 4 -4 4
-10z m410 -65 c-14 -17 -30 -20 -30 -6 0 5 8 12 18 14 9 3 19 5 21 6 2 0 -2
-6 -9 -14z m-360 -95 c0 -5 -5 -10 -11 -10 -5 0 -7 5 -4 10 3 6 8 10 11 10 2
0 4 -4 4 -10z m0 -50 c0 -5 -2 -10 -4 -10 -3 0 -8 5 -11 10 -3 6 -1 10 4 10 6
0 11 -4 11 -10z m-88 -472 c-9 -9 -12 -7 -12 12 0 19 3 21 12 12 9 -9 9 -15 0
-24z m256 -831 c9 -7 10 -13 2 -21 -15 -15 -12 -56 5 -62 11 -5 13 -10 5 -19
-8 -9 -6 -17 5 -28 14 -15 14 -17 -4 -27 -18 -9 -19 -14 -9 -36 10 -21 9 -27
-11 -40 -26 -19 -25 -60 2 -58 9 1 17 -2 17 -7 0 -5 -7 -9 -15 -9 -8 0 -19 -8
-24 -17 -7 -14 -19 -17 -53 -15 -23 2 -58 4 -77 5 -39 3 -72 40 -53 59 7 7 12
26 12 43 0 23 -3 26 -10 15 -6 -10 -8 5 -4 45 7 72 14 86 28 54 9 -20 11 -14
14 46 1 39 4 75 6 80 5 14 146 7 164 -8z m32 -57 c0 -5 -7 -10 -16 -10 -8 0
-12 5 -9 10 3 6 10 10 16 10 5 0 9 -4 9 -10z m-480 -180 c0 -11 -46 -21 -64
-14 -19 7 -21 21 -4 26 17 6 68 -3 68 -12z m70 10 c13 -9 13 -11 1 -19 -13 -8
-13 -12 -1 -26 12 -14 12 -18 -1 -26 -20 -13 -29 -11 -29 5 0 10 -7 12 -22 8
-18 -4 -20 -2 -15 19 4 13 7 27 7 31 0 5 15 12 40 17 3 0 12 -4 20 -9z m147
-42 c-3 -58 -31 -61 -35 -4 -3 32 -1 38 12 33 9 -4 16 -2 16 3 0 6 2 10 4 10
3 0 4 -19 3 -42z m259 -5 c-10 -10 -19 5 -10 18 6 11 8 11 12 0 2 -7 1 -15 -2
-18z m-521 -33 c-3 -6 -10 -10 -16 -10 -10 0 -12 33 -2 44 9 9 26 -22 18 -34z
m-1 -86 c8 -29 -1 -64 -14 -64 -16 0 -43 49 -36 66 3 8 10 12 16 9 5 -3 10 -1
10 4 0 22 18 10 24 -15z m318 -35 c11 -6 40 -11 64 -11 39 0 44 -2 39 -19 -4
-11 2 -27 14 -41 25 -26 25 -31 8 -89 -14 -47 -13 -63 1 -120 5 -21 6 -43 1
-50 -5 -8 -9 -24 -9 -35 0 -18 -6 -21 -40 -21 -22 0 -43 3 -45 7 -2 4 -28 6
-56 3 -35 -2 -57 1 -68 11 -9 7 -26 17 -38 20 -27 9 -30 26 -5 27 15 1 15 2
-1 6 -13 3 -16 10 -11 21 4 10 8 27 8 40 1 12 7 22 14 22 6 0 12 5 12 11 0 5
5 7 11 3 6 -3 9 -15 6 -25 -3 -10 -2 -21 3 -24 11 -7 19 29 27 118 6 76 2 86
-25 68 -11 -7 -11 -12 -1 -28 7 -11 9 -28 5 -38 -6 -17 -8 -17 -22 3 -8 12
-23 22 -32 23 -12 0 -10 3 6 10 21 8 23 13 17 48 -7 44 -1 51 55 62 19 4 36 7
38 8 2 0 12 -4 24 -10z m-154 -57 c3 -17 -2 -22 -17 -22 -13 0 -21 -6 -21 -17
0 -9 -3 -14 -6 -11 -3 3 -2 22 2 42 7 42 37 47 42 8z m-111 -34 c-3 -8 -6 -5
-6 6 -1 11 2 17 5 13 3 -3 4 -12 1 -19z m46 2 c3 -12 0 -20 -7 -20 -18 0 -25
10 -19 26 7 20 20 17 26 -6z m-120 3 c-7 -2 -19 -2 -25 0 -7 3 -2 5 12 5 14 0
19 -2 13 -5z m242 -103 c3 -5 1 -10 -4 -10 -6 0 -11 5 -11 10 0 6 2 10 4 10 3
0 8 -4 11 -10z m-175 -50 c-29 -8 -40 -3 -21 10 8 4 21 5 30 2 12 -5 10 -8 -9
-12z m8 -72 c3 -22 0 -27 -12 -22 -9 3 -13 10 -10 15 8 13 -10 11 -24 -3 -13
-13 -27 -5 -17 11 3 6 18 11 33 12 l27 1 -25 9 -25 8 25 -2 c19 -2 26 -8 28
-29z m77 -28 c3 -5 1 -10 -4 -10 -6 0 -11 5 -11 10 0 6 2 10 4 10 3 0 8 -4 11
-10z m-194 -151 c22 -25 17 -39 -15 -39 -30 0 -34 5 -28 35 5 31 19 32 43 4z
m101 -6 c-5 -10 -7 -24 -5 -30 7 -19 -26 -16 -33 2 -7 18 13 45 33 45 10 0 11
-5 5 -17z m248 -4 c53 0 58 -6 54 -69 -1 -33 2 -60 7 -60 5 0 3 -12 -4 -27 -8
-16 -12 -34 -10 -40 3 -7 0 -13 -6 -13 -6 0 -11 -9 -11 -20 0 -11 -6 -20 -14
-20 -7 0 -16 -8 -19 -19 -3 -14 0 -17 13 -14 14 4 16 -3 16 -49 -1 -42 -5 -53
-19 -56 -9 -2 -17 -8 -17 -14 0 -6 -12 -7 -32 -2 -18 4 -44 8 -58 9 -38 3 -40
4 -35 18 3 6 9 52 15 101 5 49 11 91 13 93 5 4 16 6 84 18 27 4 43 12 46 24 6
24 -71 48 -101 32 -12 -6 -23 -11 -26 -11 -7 0 3 110 11 123 3 5 22 6 42 2 20
-3 43 -6 51 -6z m-313 -261 c-3 -8 -6 -5 -6 6 -1 11 2 17 5 13 3 -3 4 -12 1
-19z m-97 -39 c0 -28 -4 -39 -12 -36 -7 2 -12 17 -12 33 3 43 3 44 14 44 6 0
10 -18 10 -41z m110 -49 c0 -5 -7 -10 -15 -10 -8 0 -15 5 -15 10 0 6 7 10 15
10 8 0 15 -4 15 -10z m254 -158 c3 -5 0 -28 -6 -51 -9 -35 -8 -45 3 -52 9 -5
15 -29 16 -66 3 -84 5 -94 19 -89 20 8 6 -18 -17 -33 -18 -11 -24 -10 -37 2
-13 14 -17 12 -33 -21 -20 -38 -19 -48 5 -39 9 4 13 13 10 22 -3 8 -1 15 5 15
6 0 10 -11 9 -25 -1 -14 -6 -25 -10 -25 -3 0 -5 -18 -3 -39 3 -37 2 -39 -28
-45 -21 -4 -35 -2 -42 6 -5 7 -21 13 -35 13 -24 0 -25 3 -22 50 3 72 10 86 27
55 l14 -25 1 25 c0 14 10 45 21 69 12 29 18 55 14 72 -4 15 -1 37 5 49 9 16 8
25 0 35 -19 23 -9 61 15 56 19 -3 19 -2 2 17 -18 20 -18 21 5 25 40 8 57 7 62
-1z m-414 -344 c0 -7 -5 -20 -10 -28 -8 -12 -10 -9 -10 13 0 15 5 27 10 27 6
0 10 -6 10 -12z m270 -383 c9 -10 10 -32 6 -73 -8 -64 -12 -107 -14 -139 -2
-29 -42 -33 -42 -4 0 11 6 21 13 24 9 3 9 7 0 19 -28 33 -18 188 12 188 7 0
18 -7 25 -15z m-14038 -722 c10 -9 16 -19 13 -22 -3 -3 11 -15 32 -28 l38 -23
-48 0 c-90 0 -47 -24 93 -51 107 -21 137 -31 152 -49 54 -67 -23 -85 -206 -47
-47 9 -60 9 -64 -1 -2 -6 -13 -12 -25 -12 -20 0 -20 1 -2 14 16 12 11 14 -51
26 -38 7 -73 16 -79 20 -16 13 -86 29 -150 35 -33 3 -67 8 -77 11 -22 7 -24
-12 -2 -20 8 -3 12 -10 9 -16 -4 -6 -9 -8 -13 -6 -4 2 -31 7 -61 10 -62 6
-104 29 -99 54 4 20 68 27 81 9 6 -9 11 -7 20 7 7 10 23 32 36 49 24 28 28 29
81 24 64 -7 100 0 100 19 0 28 191 26 222 -3z m203 -83 c3 -5 23 -11 43 -11
36 -1 37 -1 7 -8 -16 -4 -52 -2 -80 3 -47 10 -48 11 -20 17 17 4 33 7 37 8 4
0 10 -3 13 -9z m125 -26 c0 -2 -7 -4 -15 -4 -8 0 -15 4 -15 10 0 5 7 7 15 4 8
-4 15 -8 15 -10z m-461 -90 c2 -2 2 -7 -1 -10 -4 -3 -19 2 -35 10 l-28 16 30
-6 c17 -4 32 -8 34 -10z m802 10 c27 -5 38 -13 46 -34 6 -16 8 -31 5 -34 -17
-18 -121 9 -137 34 -11 19 3 40 27 40 13 0 39 -3 59 -6z m-731 -34 c0 -5 -6
-10 -14 -10 -8 0 -18 5 -21 10 -3 6 3 10 14 10 12 0 21 -4 21 -10z m-15 -50
c122 -50 127 -51 140 -40 11 9 32 9 87 0 121 -18 138 -22 138 -29 0 -4 16 -13
35 -20 44 -16 76 -58 54 -72 -15 -11 -146 -4 -214 11 -22 5 -89 16 -150 25
-244 36 -275 45 -275 85 0 25 41 43 76 34 17 -4 26 -1 30 10 6 16 34 15 79 -4z
m-394 0 c13 -8 19 -21 19 -47 l0 -36 -60 6 c-62 7 -107 24 -129 51 -10 12 -5
16 36 21 26 4 53 8 58 10 21 7 57 5 76 -5z m903 -49 c10 -11 28 -21 40 -23 16
-2 17 -5 6 -9 -18 -8 -82 21 -88 39 -6 19 23 14 42 -7z m19401 -988 c22 -8 48
-15 58 -14 19 0 23 -14 7 -24 -6 -4 -7 -11 -4 -17 4 -6 11 -2 18 11 12 21 12
21 29 1 16 -19 15 -20 -9 -26 -14 -4 -77 -7 -140 -8 -92 -1 -116 2 -124 14 -5
8 -14 16 -20 16 -5 1 -14 2 -19 3 -14 2 -20 40 -8 48 40 25 140 23 212 -4z"/>
<path d="M17120 10536 c0 -31 6 -34 13 -6 3 11 1 23 -4 26 -5 3 -9 -6 -9 -20z"/>
<path d="M17095 10421 c-7 -22 0 -41 16 -41 11 0 12 30 0 49 -7 11 -10 9 -16
-8z"/>
<path d="M16870 8856 c0 -22 3 -27 11 -19 8 8 8 16 0 30 -9 16 -10 14 -11 -11z"/>
<path d="M22730 6430 c0 -5 5 -10 11 -10 5 0 7 5 4 10 -3 6 -8 10 -11 10 -2 0
-4 -4 -4 -10z"/>
</g>
</svg>
